<svg xmlns="http://www.w3.org/2000/svg"><symbol id="sprite-app_store" fill="none" viewBox="0 0 143 42"><title>app_store</title><rect width="141.492" height="41.265" x=".535" y=".367" fill="#000" stroke="#a6a6a6" stroke-width=".735" rx="3.306"/><path fill="#fff" d="M39.006 20.318c-.023-2.788 2.282-4.143 2.383-4.205-1.308-1.9-3.333-2.165-4.041-2.188-1.698-.18-3.349 1.02-4.213 1.02-.88 0-2.219-.997-3.652-.974-1.845.032-3.582 1.098-4.524 2.765-1.954 3.387-.498 8.37 1.378 11.111.943 1.34 2.033 2.842 3.473 2.788 1.402-.055 1.931-.896 3.621-.896 1.682 0 2.172.896 3.636.864 1.511-.023 2.453-1.347 3.364-2.701 1.083-1.534 1.519-3.053 1.534-3.13-.039-.016-2.928-1.122-2.959-4.454M36.243 12.126c.755-.942 1.269-2.227 1.129-3.535-1.09.046-2.46.755-3.247 1.682-.693.817-1.316 2.149-1.16 3.402 1.23.094 2.491-.623 3.278-1.55M59.345 30.44h-1.962l-1.075-3.38h-3.737l-1.02 3.38h-1.908l3.698-11.5h2.29zm-3.356-4.797-.973-2.998c-.102-.311-.296-1.027-.577-2.164H54.4q-.172.737-.545 2.164l-.957 2.998zM68.852 26.196c0 1.41-.381 2.523-1.152 3.34-.685.732-1.542 1.09-2.554 1.09q-1.645.002-2.367-1.175v4.352h-1.846v-8.93c0-.888-.023-1.792-.07-2.726h1.62l.101 1.316h.031c.615-.989 1.55-1.487 2.796-1.487.98 0 1.79.389 2.445 1.16.67.779.996 1.79.996 3.06m-1.876.062c0-.81-.18-1.471-.545-1.993-.397-.545-.935-.818-1.604-.818-.452 0-.865.156-1.238.452a2.1 2.1 0 0 0-.725 1.183 2.5 2.5 0 0 0-.085.561v1.386c0 .6.187 1.114.553 1.526q.55.621 1.44.623c.693 0 1.23-.272 1.62-.802.39-.537.584-1.238.584-2.118M78.383 26.196q.001 2.115-1.152 3.34c-.686.732-1.542 1.09-2.554 1.09q-1.645.002-2.368-1.175v4.352h-1.845v-8.93c0-.888-.023-1.792-.07-2.726h1.62l.1 1.316h.032c.615-.989 1.55-1.487 2.795-1.487.981 0 1.791.389 2.445 1.16.67.779.997 1.79.997 3.06m-1.877.062c0-.81-.179-1.471-.545-1.993q-.597-.818-1.604-.818c-.451 0-.864.156-1.238.452a2.13 2.13 0 0 0-.724 1.183 2.5 2.5 0 0 0-.086.561v1.386c0 .6.187 1.114.553 1.526.366.413.849.623 1.44.623.694 0 1.239-.272 1.62-.802.398-.537.584-1.238.584-2.118M89.05 27.216c0 .982-.342 1.776-1.02 2.39q-1.12 1.005-3.13 1.005-1.855-.002-2.974-.716l.428-1.534q1.215.714 2.663.716c.693 0 1.238-.155 1.62-.467.389-.311.584-.732.584-1.253 0-.468-.164-.857-.475-1.176q-.48-.48-1.589-.888C83.125 24.538 82.12 23.44 82.12 22q.002-1.411 1.067-2.32 1.063-.901 2.826-.903 1.568-.002 2.609.545l-.467 1.495c-.654-.35-1.386-.53-2.212-.53-.646 0-1.16.164-1.526.475-.303.288-.46.631-.46 1.044 0 .451.18.833.53 1.121q.458.409 1.675.888c.988.397 1.712.864 2.18 1.401.475.538.708 1.207.708 2.001M95.155 23.533h-2.032v4.026q0 1.532 1.075 1.534.491-.002.817-.086l.055 1.402c-.366.132-.841.202-1.433.202-.732 0-1.293-.226-1.705-.67-.413-.443-.615-1.19-.615-2.234v-4.181H90.11v-1.379h1.207V20.63l1.806-.545v2.063h2.032zM104.297 26.227c0 1.277-.366 2.32-1.09 3.138q-1.144 1.262-3.037 1.262c-1.215 0-2.188-.405-2.912-1.207s-1.082-1.822-1.082-3.053q.001-1.927 1.113-3.153 1.122-1.229 3.013-1.23 1.824 0 2.936 1.214c.709.779 1.059 1.791 1.059 3.03m-1.908.04c0-.764-.163-1.41-.49-1.955q-.584-.991-1.659-.99c-.74 0-1.308.328-1.69.99-.334.545-.49 1.207-.49 1.993q0 1.147.49 1.954.598.991 1.675.99 1.05 0 1.658-1.005c.335-.56.506-1.215.506-1.978M110.292 23.767a3.4 3.4 0 0 0-.584-.047c-.646 0-1.152.241-1.503.732-.303.428-.459.98-.459 1.635v4.353h-1.845v-5.684q.002-1.439-.055-2.609h1.604l.07 1.588h.055c.194-.545.498-.988.919-1.315a2.24 2.24 0 0 1 1.331-.444c.171 0 .327.015.459.03zM118.53 25.9c0 .327-.023.608-.07.833h-5.528c.023.818.288 1.449.802 1.877.467.381 1.067.576 1.806.576q1.228-.002 2.235-.39l.288 1.278q-1.18.514-2.78.514c-1.284 0-2.297-.382-3.029-1.137s-1.098-1.776-1.098-3.045c0-1.245.343-2.289 1.028-3.122q1.075-1.332 2.897-1.332c1.191 0 2.102.444 2.71 1.332.49.716.739 1.58.739 2.616m-1.759-.475c.015-.545-.109-1.02-.359-1.417q-.48-.77-1.463-.77c-.6 0-1.091.248-1.464.747-.304.397-.491.88-.545 1.432zM55.102 14.828h-.966l-.53-1.659H51.77l-.506 1.659h-.935l1.815-5.653h1.12zm-1.659-2.36-.475-1.479c-.047-.148-.14-.506-.288-1.067h-.016c-.062.242-.14.592-.272 1.067l-.467 1.48zM59.648 10.748l-1.541 4.08h-.88l-1.495-4.08h.973l.693 2.157q.177.537.296 1.027h.023c.07-.296.172-.638.296-1.027l.685-2.157zM62.934 14.828l-.07-.467h-.023q-.42.56-1.191.56c-.733 0-1.246-.514-1.246-1.199 0-1.004.872-1.526 2.382-1.526v-.078c0-.537-.288-.802-.848-.802-.405 0-.756.101-1.067.304l-.187-.592c.374-.234.849-.35 1.402-.35 1.066 0 1.604.56 1.604 1.69v1.502c0 .413.015.732.062.973zm-.124-2.033c-1.005 0-1.51.242-1.51.826 0 .428.256.638.622.638.46 0 .888-.35.888-.833zM65.707 10.078a.53.53 0 0 1-.538-.545c0-.312.242-.537.553-.537s.56.225.553.537c0 .327-.234.545-.568.545m-.436.67h.903v4.072h-.903zM67.785 8.879h.904v5.94h-.904zM72.535 14.828l-.07-.467h-.023q-.42.56-1.191.56c-.732 0-1.246-.514-1.246-1.199 0-1.004.872-1.526 2.382-1.526v-.078c0-.537-.288-.802-.848-.802-.405 0-.756.101-1.067.304l-.187-.6c.374-.233.849-.35 1.401-.35 1.067 0 1.605.56 1.605 1.69v1.502c0 .413.015.732.054.974h-.81zm-.124-2.032c-1.005 0-1.51.24-1.51.825 0 .428.256.638.622.638.46 0 .888-.35.888-.833zM76.965 14.921q-.864 0-1.284-.724h-.016l-.055.63h-.77c.023-.326.03-.692.03-1.097V8.879h.912v2.468h.015c.273-.452.701-.677 1.3-.677.982 0 1.667.84 1.667 2.063 0 1.261-.763 2.188-1.799 2.188m-.187-3.543c-.521 0-.996.452-.996 1.082v.717c0 .56.428 1.02.98 1.02.678 0 1.083-.553 1.083-1.433 0-.825-.42-1.386-1.067-1.386M80.104 8.879h.903v5.94h-.903zM85.936 13.006h-2.718c.016.77.53 1.207 1.285 1.207.405 0 .77-.07 1.098-.195l.14.63c-.382.172-.833.25-1.363.25-1.277 0-2.032-.802-2.032-2.056 0-1.245.77-2.188 1.931-2.188 1.036 0 1.698.771 1.698 1.94 0 .163-.008.303-.04.412m-.826-.646c0-.631-.319-1.075-.895-1.075-.522 0-.927.452-.989 1.075zM91.425 14.921c-1.191 0-1.962-.887-1.962-2.094 0-1.262.786-2.157 2.032-2.157 1.176 0 1.962.848 1.962 2.087 0 1.269-.81 2.164-2.032 2.164m.04-3.59c-.655 0-1.075.616-1.075 1.465 0 .84.428 1.448 1.066 1.448s1.067-.654 1.067-1.472c-.008-.825-.42-1.44-1.059-1.44M98.324 14.828h-.903v-2.344c0-.724-.28-1.082-.826-1.082-.537 0-.903.46-.903.996v2.422h-.903v-2.904q.002-.538-.031-1.168h.794l.039.63h.023c.242-.436.74-.716 1.293-.716.856 0 1.417.654 1.417 1.72zM104.25 11.433h-.997v1.978q.002.757.53.755c.155 0 .295-.016.404-.039l.024.685c-.179.07-.413.101-.701.101-.716 0-1.137-.397-1.137-1.424v-2.056h-.592v-.678h.592v-.747l.888-.273v1.013h.996v.685M109.047 14.828h-.904v-2.329c0-.732-.28-1.098-.825-1.098-.467 0-.903.32-.903.966v2.453h-.904V8.879h.904v2.445h.015q.43-.664 1.223-.662c.864 0 1.394.67 1.394 1.736zM113.672 13.006h-2.718c.016.77.53 1.207 1.285 1.207.405 0 .771-.07 1.098-.195l.14.63c-.381.172-.833.25-1.362.25-1.277 0-2.033-.802-2.033-2.056 0-1.245.771-2.188 1.931-2.188 1.036 0 1.698.771 1.698 1.94 0 .163-.008.303-.039.412m-.825-.646c0-.631-.32-1.075-.896-1.075-.522 0-.934.452-.989 1.075z"/></symbol><symbol id="sprite-burberry" fill="none" viewBox="0 0 264 36"><title>burberry</title><path fill="#a7a7a7" d="M95.62 11.322C95.62 5.551 90.916.848 85.144.848H67.69v34.2h7.766V21.797h6.2l7.552 13.253h8.621l-8.194-14.322c3.705-1.71 5.985-5.415 5.985-9.405M83.577 15.17h-8.194V7.474h8.336c2.565.143 4.204 1.64 4.204 3.848-.071 2.209-1.781 3.776-4.346 3.848M54.008.92h7.98v20.59c0 8.979-5.557 14.394-14.89 14.394-9.335 0-14.892-5.344-14.892-14.393V.919h7.98v20.093c0 4.845 2.565 7.624 6.911 7.624 4.418 0 6.983-2.779 6.983-7.624V.92zm88.281 27.289h18.454v6.84H134.38V.848h25.508v6.555H142.36v6.84h15.391v6.698H142.36v7.268zM21.66 16.096c2.423-1.496 3.92-4.133 3.92-6.983 0-4.489-3.635-8.194-8.195-8.265H0v34.2h18.882c5.343 0 9.618-4.346 9.618-9.69 0-3.776-2.208-7.695-6.84-9.262M7.838 7.26h6.412c1.924 0 3.563 1.638 3.563 3.562a3.53 3.53 0 0 1-3.563 3.563H7.838zm8.764 21.375H7.838v-7.98h8.692c2.85 0 4.204 2.28 4.204 3.919 0 2.066-1.425 4.061-4.132 4.061m177.344-17.314c0-5.771-4.702-10.474-10.474-10.474h-17.456v34.2h7.766V21.797h6.199l7.553 13.253h8.621l-8.194-14.322c3.634-1.71 5.985-5.415 5.985-9.405m-12.113 3.848h-8.193V7.474h8.336c2.565.143 4.204 1.64 4.204 3.848s-1.782 3.776-4.347 3.848m-58.639.926c2.422-1.496 3.918-4.133 3.918-6.983 0-4.489-3.633-8.194-8.193-8.265h-17.386v34.2h18.882c5.344 0 9.619-4.346 9.619-9.69 0-3.776-2.28-7.695-6.84-9.262M109.371 7.26h6.412c1.924 0 3.563 1.638 3.563 3.562a3.53 3.53 0 0 1-3.563 3.563h-6.412zm8.692 21.375h-8.692v-7.98h8.692c2.851 0 4.204 2.28 4.204 3.919 0 2.066-1.425 4.061-4.204 4.061M263.345.848l-13.609 20.235v13.894h-8.408V21.083L227.791.848h9.975l7.837 11.756L253.441.848zm-35.626 10.474c0-5.771-4.702-10.474-10.474-10.474h-17.456v34.2h7.766V21.797h6.199l7.553 13.253h8.692l-8.194-14.322c3.634-1.71 5.914-5.415 5.914-9.405m-12.112 3.848h-8.194V7.474h8.336c2.565.143 4.204 1.64 4.204 3.848s-1.71 3.776-4.346 3.848"/></symbol><symbol id="sprite-dunkin" fill="none" viewBox="0 0 205 37"><title>dunkin</title><path fill="#a7a7a7" d="M103.971 5.16c.118.647.118 1.293.118 1.94v23.876c0 2.47-.882 4.41-3.176 5.41-2.47 1.059-4.822.647-6.822-1.176-1.234-1.117-2.175-2.529-3.234-3.881-2.764-3.529-5.763-6.94-8.115-10.82.058-.06 0-.06-.06-.118-.117.176-.058.411-.058.588v9.233c0 .882-.118 1.705-.353 2.528-.764 2.647-2.999 4.234-5.763 4.058-3.41-.235-5.351-2.294-5.587-5.88-.058-.354-.058-.706-.058-1.06V6.043c0-2.47.94-4.41 3.293-5.41 2.41-1 4.704-.647 6.704 1.176 1.058.94 1.823 2.234 2.705 3.41 2.646 3.588 5.469 7.116 7.939 10.88.235.412.47.764.882 1.117V6.747c0-1.352.235-2.705.94-3.88C94.622.69 96.62-.016 98.973.22c2.764.235 4.646 2.117 4.999 4.94M189.829 4.1c-.588-2-1.881-3.41-3.998-3.822-2.235-.412-4.293-.118-5.881 1.764-1.059 1.294-1.412 2.823-1.412 4.41v10.939a31 31 0 0 0-1.058-1.706c-3.058-4.47-6.351-8.703-9.586-13.055-.411-.53-.941-1-1.529-1.411-2.058-1.353-4.175-1.47-6.351-.47-1.94.94-2.94 2.587-2.94 4.704-.059 8.35 0 16.76 0 25.11 0 .177.059.412.059.588.235 3.352 2.234 5.47 5.528 5.705 2.293.176 4.41-1 5.41-3 .411-.882.705-1.764.705-2.704 0-3.411.059-6.704.059-10.056v-.647q.088 0 0 0c.353.588.647 1.117 1.059 1.646 2.999 4.293 6.41 8.233 9.585 12.35.236.294.588.647.883.882 1.999 1.646 4.292 1.94 6.645.94 2.293-.999 3.175-2.94 3.175-5.35V6.982c0-.941-.059-1.94-.353-2.882M31.815 11.922c2.352 6.528 1.588 12.762-3.058 18.23-2.823 3.353-6.646 5.117-10.938 5.705-3.94.588-7.94.176-11.938.235a2 2 0 0 1-.588-.117C2.176 35.445 0 32.858 0 29.74V7.218C0 3.69 2.705.867 6.292.808h4.999c2.058.059 4.41-.176 6.763.294 6.469 1.235 11.467 4.47 13.76 10.82M21.288 18.51c.059-3.293-2.117-5.88-5.41-6.292-1.235-.177-2.411-.06-3.646-.118-.47-.059-.588.118-.588.588.059 1.94.059 3.881.059 5.822v5.822c0 .294-.06.53.411.53 1.235-.06 2.47.058 3.705-.119 3.234-.411 5.41-2.822 5.47-6.233m108.147.235c-.295-.353-.295-.53 0-.882 2.058-2.352 4.116-4.704 6.115-7.116 1-1.235 1.647-2.587 1.765-4.175.235-3.47-3.058-6.645-6.528-6.292-1.999.176-3.411 1.293-4.587 2.822-2.058 2.706-4.234 5.293-6.351 7.998 0-1.764.059-3.528.059-5.234-.118-3.41-2.529-5.704-5.822-5.763-3.352 0-5.822 2.353-5.881 5.763q-.088 12.615 0 25.229c0 3.352 2.47 5.763 5.822 5.763 3.293.059 5.704-2.352 5.822-5.763.118-1.706.059-3.352.059-5.058 0-.176-.118-.353.117-.47.118.176.177.294.294.412 2.235 2.881 4.587 5.645 6.881 8.468.823 1 1.764 1.705 2.999 2.058 3.528 1.059 7.41-1.94 7.527-5.763.059-1.823-.588-3.293-1.764-4.646-2.176-2.411-4.352-4.94-6.527-7.35m-62.512-3.646c0-3.352 0-6.116-.06-8.939 0-.529 0-1-.117-1.47C66.1 1.69 63.453-.19 60.395.102c-3.117.353-5.234 2.705-5.234 5.881v14.525c0 .353 0 .706-.059 1.059-.294 2.764-2.94 4.47-5.351 3.234-1.53-.764-2.117-2.117-2.117-3.763V6.159c0-3.587-2.411-6.057-5.822-6.115-3.41 0-5.822 2.47-5.88 5.998-.06 5.234 0 10.467 0 15.76.058.765.058 1.47.176 2.176.823 5.528 3.704 9.527 8.938 11.644 2.94 1.235 5.999 1.411 9.115 1 7.057-.883 12.291-6.47 12.703-13.526.176-2.823 0-5.704.058-7.998m84.27-13.526c-1.94-1.705-4.175-1.999-6.527-1-2.235 1-3.235 2.882-3.294 5.293-.058 4.176 0 8.351 0 12.526 0 4.293 0 8.469-.058 12.703 0 3.293 2.411 5.586 5.763 5.704 3.175.118 5.822-2.294 5.88-5.528q.089-12.88 0-25.757c0-1.53-.588-2.94-1.764-3.94M193.828 8.57c-.058-1.41 0-2.822.294-4.234.647-2.94 3.117-4.587 6.116-4.116 2.882.47 4.764 2.823 4.47 5.763-.235 2.411-.941 4.763-1.882 6.998-.588 1.294-1.411 2.352-2.823 2.823-2.293.764-4.704-.353-5.528-2.646-.588-1.47-.647-3.058-.647-4.587"/></symbol><symbol id="sprite-google_play" fill="none" viewBox="0 0 140 42"><title>google_play</title><path fill="#000" d="M134.017 41.272H5.252c-2.833 0-5.15-2.322-5.15-5.16V5.16C.101 2.322 2.418 0 5.251 0h128.765c2.833 0 5.15 2.322 5.15 5.159v30.954c0 2.837-2.317 5.159-5.15 5.159"/><path fill="#a6a6a6" d="M134.017 0H5.252C2.419 0 .102 2.322.102 5.159v30.954c0 2.837 2.317 5.159 5.15 5.159h128.765c2.833 0 5.15-2.322 5.15-5.16V5.16c0-2.837-2.317-5.159-5.15-5.159m0 .825a4.335 4.335 0 0 1 4.326 4.334v30.954a4.335 4.335 0 0 1-4.326 4.334H5.252a4.335 4.335 0 0 1-4.327-4.335V5.16A4.335 4.335 0 0 1 5.252.825z"/><path fill="#fff" d="M48.948 10.569q0 1.296-.768 2.066-.873.916-2.27.916-1.34 0-2.275-.929-.937-.93-.936-2.304 0-1.375.936-2.305t2.275-.93q.664 0 1.268.26t.967.692l-.543.544q-.614-.735-1.692-.734-.977 0-1.688.687-.713.688-.713 1.786t.712 1.785a2.35 2.35 0 0 0 1.689.688q1.035 0 1.726-.692.449-.45.518-1.254h-2.245v-.743h2.996q.043.242.043.467"/><path fill="#fff" d="M48.948 10.57h-.103c-.001.844-.248 1.5-.738 1.992v.001l-.001.001c-.563.59-1.287.883-2.197.884-.868 0-1.595-.298-2.201-.899-.606-.602-.905-1.338-.907-2.231.002-.894.301-1.629.907-2.23.606-.603 1.333-.9 2.201-.9q.644 0 1.229.25.584.253.928.664l.079-.067-.073-.073-.543.545.072.073.08-.066c-.428-.514-1.03-.773-1.771-.772-.675 0-1.269.24-1.76.716-.495.478-.745 1.106-.744 1.86 0 .754.248 1.382.744 1.86a2.45 2.45 0 0 0 1.76.716c.713.001 1.32-.241 1.799-.722.32-.32.5-.765.548-1.318l.01-.112h-2.254v-.537h2.892v-.103l-.102.018q.042.234.042.45h.206q0-.236-.045-.487L48.99 10h-3.184v.95h2.347v-.104l-.103-.008c-.045.519-.21.91-.488 1.19-.443.441-.986.66-1.654.66a2.24 2.24 0 0 1-1.616-.658c-.454-.44-.68-1-.68-1.711 0-.71.226-1.272.68-1.711.458-.442.99-.658 1.617-.659.696.002 1.222.233 1.613.698l.072.086.623-.624.066-.067-.06-.072a2.65 2.65 0 0 0-1.005-.72 3.3 3.3 0 0 0-1.31-.268c-.915-.001-1.706.321-2.347.96-.643.636-.967 1.437-.966 2.377-.001.94.323 1.74.967 2.378.64.638 1.43.96 2.346.959.954 0 1.745-.317 2.346-.948l-.075-.072.073.073c.534-.534.798-1.255.798-2.139zm4.748-2.587H50.88v1.963h2.538v.744h-2.538v1.963h2.815v.76h-3.608v-6.19h3.608z"/><path fill="#fff" d="M53.696 7.983V7.88h-2.918v2.17h2.538v.536h-2.538v2.17h2.814v.554H50.19V7.326h3.402v.657zV7.88zh.102V7.12h-3.814v6.397h3.814v-.966h-2.814v-1.757h2.538v-.95h-2.538V8.086h2.814v-.103zm3.349 5.43h-.795v-5.43h-1.726v-.76h4.247v.76h-1.726z"/><path fill="#fff" d="M57.045 13.413v-.103h-.692V7.88h-1.726v-.554h4.041v.554h-1.726v5.533zv-.103zh.103V8.086h1.726V7.12h-4.453v.967h1.726v5.43h1v-.103zm4.8 0v-6.19h.793v6.19z"/><path fill="#fff" d="M61.844 13.413h.103V7.326h.588v5.984h-.69zh.102zv.103h.897V7.12h-1v6.397h.103zm4.317 0h-.795v-5.43H63.64v-.76h4.247v.76h-1.726z"/><path fill="#fff" d="M66.161 13.413v-.103h-.692V7.88h-1.726v-.554h4.041v.554h-1.726v5.533zv-.103zh.103V8.086h1.726V7.12h-4.453v.967h1.726v5.43h1.001v-.103zm5.821-1.318a2.27 2.27 0 0 0 1.68.695q.992 0 1.678-.695.687-.697.687-1.777T75.34 8.54a2.27 2.27 0 0 0-1.679-.696q-.993 0-1.679.696-.686.697-.686 1.777.001 1.08.686 1.777m3.945.518q-.911.939-2.266.938-1.356 0-2.265-.938-.911-.938-.91-2.295-.001-1.357.91-2.296.909-.938 2.265-.938 1.347 0 2.263.943.915.942.914 2.29 0 1.358-.91 2.296"/><path fill="#fff" d="m71.982 12.095-.073.072a2.37 2.37 0 0 0 1.752.727 2.37 2.37 0 0 0 1.752-.726c.478-.483.718-1.108.717-1.85.001-.742-.24-1.367-.717-1.85a2.37 2.37 0 0 0-1.752-.726 2.37 2.37 0 0 0-1.752.726c-.477.483-.717 1.108-.716 1.85-.001.742.24 1.367.716 1.85zl.073-.073c-.437-.445-.655-1.005-.656-1.704 0-.699.22-1.26.656-1.705a2.16 2.16 0 0 1 1.606-.665c.638.002 1.166.22 1.606.665.438.446.656 1.006.657 1.705 0 .699-.22 1.26-.657 1.704-.44.446-.968.664-1.606.665a2.16 2.16 0 0 1-1.606-.665zm3.946.518-.074-.071c-.59.606-1.313.905-2.193.906-.88 0-1.602-.3-2.192-.906l-.002-.004.002.004c-.589-.609-.88-1.342-.88-2.224s.291-1.615.88-2.224c.59-.606 1.312-.906 2.192-.907.874.001 1.595.302 2.189.912.591.61.884 1.343.885 2.219-.001.882-.293 1.615-.881 2.224zl.074.072c.624-.642.94-1.44.94-2.367 0-.923-.317-1.718-.944-2.363-.628-.648-1.414-.975-2.337-.974-.927-.001-1.715.325-2.34.97-.625.642-.94 1.44-.939 2.367 0 .928.314 1.725.94 2.367l.003.003-.003-.003c.624.645 1.412.97 2.34.97.926 0 1.715-.325 2.34-.97zm2.025.8v-6.19h.966l3.004 4.816h.034l-.034-1.194V7.224h.795v6.19h-.829l-3.143-5.05h-.034l.034 1.194v3.856z"/><path fill="#fff" d="M77.953 13.413h.103V7.326h.806l3.004 4.816h.197l-.037-1.298V7.326h.589v5.984h-.669l-3.143-5.05h-.197l.037 1.299v3.751h-.69zh.103zv.103h.896v-3.96l-.034-1.195-.103.003v.103h.034v-.103l-.087.055 3.173 5.097h.989V7.12h-1v3.728l.033 1.194.103-.002v-.104h-.034v.104l.087-.055-3.034-4.865H77.85v6.397h.103zm32.305 17.54h1.922V18.056h-1.922zm17.313-8.251-2.203 5.592h-.066l-2.287-5.593h-2.071l3.43 7.816-1.956 4.348h2.006l5.285-12.164zm-10.901 6.787c-.63 0-1.508-.316-1.508-1.096 0-.995 1.094-1.377 2.038-1.377.846 0 1.242.183 1.756.432a2.33 2.33 0 0 1-2.286 2.04m.232-7.07c-1.392 0-2.833.614-3.429 1.975l1.706.714c.364-.714 1.043-.946 1.756-.946.994 0 2.005.597 2.021 1.66v.132c-.348-.2-1.093-.498-2.004-.498-1.839 0-3.712 1.012-3.712 2.904 0 1.726 1.508 2.838 3.198 2.838 1.292 0 2.004-.58 2.452-1.261h.066v.995h1.855v-4.945c0-2.29-1.705-3.568-3.909-3.568m-11.879 1.853h-2.734V19.85h2.734c1.437 0 2.253 1.192 2.253 2.21 0 1-.816 2.212-2.253 2.212m-.05-6.217h-4.605v12.899h1.921v-4.887h2.684c2.131 0 4.225-1.545 4.225-4.006s-2.094-4.006-4.225-4.006M79.858 29.491c-1.328 0-2.44-1.114-2.44-2.643 0-1.546 1.112-2.676 2.44-2.676 1.311 0 2.34 1.13 2.34 2.676 0 1.53-1.029 2.643-2.34 2.643m2.207-6.067H82c-.432-.515-1.262-.98-2.307-.98-2.19 0-4.199 1.927-4.199 4.404 0 2.46 2.008 4.372 4.199 4.372 1.045 0 1.875-.466 2.307-.997h.066v.631c0 1.68-.896 2.577-2.34 2.577-1.178 0-1.908-.848-2.207-1.563l-1.676.698c.481 1.164 1.759 2.593 3.883 2.593 2.257 0 4.166-1.33 4.166-4.57v-7.88h-1.826zm3.153 7.53h1.925v-12.9h-1.925zm4.763-4.256c-.05-1.695 1.311-2.56 2.29-2.56.764 0 1.411.383 1.626.932zm5.975-1.462c-.365-.981-1.478-2.793-3.751-2.793-2.257 0-4.132 1.779-4.132 4.388 0 2.46 1.858 4.389 4.348 4.389 2.008 0 3.17-1.23 3.651-1.945l-1.494-.998c-.497.732-1.178 1.214-2.157 1.214s-1.676-.449-2.125-1.33l5.858-2.427zM49.283 23.79v1.861h4.447c-.132 1.047-.481 1.812-1.012 2.344-.647.648-1.66 1.363-3.435 1.363-2.739 0-4.88-2.21-4.88-4.953s2.141-4.954 4.88-4.954c1.477 0 2.555.582 3.352 1.33l1.311-1.313c-1.112-1.064-2.589-1.879-4.663-1.879-3.751 0-6.904 3.059-6.904 6.816s3.153 6.815 6.904 6.815c2.025 0 3.551-.665 4.746-1.912 1.228-1.23 1.61-2.959 1.61-4.355 0-.432-.033-.83-.1-1.163zm11.412 5.701c-1.328 0-2.473-1.097-2.473-2.66 0-1.579 1.145-2.66 2.473-2.66s2.473 1.081 2.473 2.66c0 1.563-1.145 2.66-2.473 2.66m0-7.048c-2.423 0-4.398 1.845-4.398 4.388 0 2.527 1.975 4.389 4.398 4.389s4.398-1.862 4.398-4.389c0-2.543-1.975-4.388-4.398-4.388m9.594 7.048c-1.327 0-2.473-1.097-2.473-2.66 0-1.579 1.146-2.66 2.473-2.66 1.328 0 2.473 1.081 2.473 2.66 0 1.563-1.145 2.66-2.473 2.66m0-7.048c-2.423 0-4.398 1.845-4.398 4.388 0 2.527 1.975 4.389 4.398 4.389s4.398-1.862 4.398-4.389c0-2.543-1.975-4.388-4.398-4.388"/><path fill="#00c1ff" d="M10.926 7.853c-.345.313-.552.834-.552 1.526v-.157 22.824-.15c0 .639.177 1.132.477 1.45l.076.073c.243.22.554.336.91.336.35 0 .741-.111 1.155-.346l14.952-8.51 5.136-2.923c.653-.371 1.019-.85 1.08-1.338v-.002c-.061-.489-.427-.967-1.08-1.338l-5.136-2.923-14.952-8.51c-.415-.235-.807-.347-1.156-.347-.356 0-.667.117-.91.335"/><path fill="url(#paint0_linear_44_1196)" d="m10.928 33.42-.077-.074c-.3-.318-.477-.811-.477-1.45v.15V9.228v.15c0-.691.207-1.212.552-1.525L23.69 20.637z"/><path fill="url(#paint1_linear_44_1196)" d="m27.944 24.9-4.255-4.263 4.254-4.262 5.137 2.923c.652.37 1.018.85 1.08 1.338v.002c-.062.488-.428.967-1.08 1.338z"/><path fill="url(#paint2_linear_44_1196)" d="M11.838 33.755c-.356 0-.668-.117-.91-.336l12.761-12.783 4.256 4.263-14.953 8.51c-.414.234-.806.346-1.154.346"/><path fill="url(#paint3_linear_44_1196)" d="M23.69 20.637 10.925 7.853c.243-.219.554-.335.91-.335.35 0 .741.112 1.156.347l14.952 8.51z"/><path fill="url(#paint4_linear_44_1196)" d="M11.838 33.906c-.356 0-.668-.117-.91-.336l-.004-.002-.066-.065-.007-.007.076-.077c.243.22.554.336.91.336.35 0 .741-.111 1.155-.346l14.952-8.51.096.096-.097.055-14.951 8.51c-.377.213-.736.325-1.06.344z"/><path fill="url(#paint5_linear_44_1196)" d="M10.85 33.496c-.299-.318-.476-.81-.476-1.45v-.15c0 .639.177 1.132.477 1.45l.076.073z"/><path fill="url(#paint6_linear_44_1196)" d="m28.04 24.995-.096-.096 5.136-2.923c.652-.371 1.018-.85 1.08-1.338q0 .27-.12.532c-.16.351-.48.683-.96.956z"/><path fill="url(#paint7_linear_44_1196)" d="M34.16 20.636c-.062-.489-.428-.967-1.08-1.338l-5.137-2.923.096-.096 5.04 2.868c.72.41 1.08.95 1.08 1.49"/><path fill="url(#paint8_linear_44_1196)" d="M10.374 9.378v-.157q0-.086.005-.167v-.011c.031-.55.202-.979.472-1.265l.075.075c-.345.313-.552.834-.552 1.525"/><path fill="url(#paint9_linear_44_1196)" d="m27.944 16.375-14.952-8.51c-.415-.235-.807-.346-1.157-.346-.356 0-.666.116-.909.334l-.075-.075q.035-.038.073-.072l.003-.003c.24-.217.548-.333.9-.335h.008c.35 0 .742.111 1.156.347l15.049 8.564z"/><defs><linearGradient id="paint0_linear_44_1196" x1="18.53" x2="7.532" y1="8.987" y2="20.003" gradientUnits="userSpaceOnUse"><stop stop-color="#00a0ff"/><stop offset=".007" stop-color="#00a1ff"/><stop offset=".26" stop-color="#00beff"/><stop offset=".512" stop-color="#00d2ff"/><stop offset=".76" stop-color="#00dfff"/><stop offset="1" stop-color="#00e3ff"/></linearGradient><linearGradient id="paint1_linear_44_1196" x1="34.954" x2="10.028" y1="20.563" y2="20.563" gradientUnits="userSpaceOnUse"><stop stop-color="#ffe000"/><stop offset=".409" stop-color="#ffbd00"/><stop offset=".775" stop-color="orange"/><stop offset="1" stop-color="#ff9c00"/></linearGradient><linearGradient id="paint2_linear_44_1196" x1="25.686" x2="7.047" y1="24.689" y2="43.221" gradientUnits="userSpaceOnUse"><stop stop-color="#ff3a44"/><stop offset="1" stop-color="#c31162"/></linearGradient><linearGradient id="paint3_linear_44_1196" x1="7.637" x2="15.944" y1="5.958" y2="14.23" gradientUnits="userSpaceOnUse"><stop stop-color="#32a071"/><stop offset=".069" stop-color="#2da771"/><stop offset=".476" stop-color="#15cf74"/><stop offset=".801" stop-color="#06e775"/><stop offset="1" stop-color="#00f076"/></linearGradient><linearGradient id="paint4_linear_44_1196" x1="25.676" x2="10.749" y1="27.646" y2="42.597" gradientUnits="userSpaceOnUse"><stop stop-color="#cc2e36"/><stop offset="1" stop-color="#9c0e4e"/></linearGradient><linearGradient id="paint5_linear_44_1196" x1="12.074" x2="2.385" y1="8.986" y2="18.692" gradientUnits="userSpaceOnUse"><stop stop-color="#008de0"/><stop offset=".007" stop-color="#008de0"/><stop offset=".26" stop-color="#00a7e0"/><stop offset=".512" stop-color="#00b8e0"/><stop offset=".76" stop-color="#00c4e0"/><stop offset="1" stop-color="#00c7e0"/></linearGradient><linearGradient id="paint6_linear_44_1196" x1="34.954" x2="10.028" y1="20.637" y2="20.637" gradientUnits="userSpaceOnUse"><stop stop-color="#e0c500"/><stop offset=".409" stop-color="#e0a600"/><stop offset=".775" stop-color="#e09100"/><stop offset="1" stop-color="#e08900"/></linearGradient><linearGradient id="paint7_linear_44_1196" x1="34.954" x2="10.028" y1="20.637" y2="20.637" gradientUnits="userSpaceOnUse"><stop stop-color="#ffe840"/><stop offset=".409" stop-color="#ffce40"/><stop offset=".775" stop-color="#ffbc40"/><stop offset="1" stop-color="#ffb540"/></linearGradient><linearGradient id="paint8_linear_44_1196" x1="12.064" x2="2.731" y1="9.004" y2="17.947" gradientUnits="userSpaceOnUse"><stop stop-color="#40b8ff"/><stop offset=".007" stop-color="#40b9ff"/><stop offset=".26" stop-color="#40ceff"/><stop offset=".512" stop-color="#40ddff"/><stop offset=".76" stop-color="#40e7ff"/><stop offset="1" stop-color="#40eaff"/></linearGradient><linearGradient id="paint9_linear_44_1196" x1="7.618" x2="14.283" y1="8.662" y2="15.338" gradientUnits="userSpaceOnUse"><stop stop-color="#65b895"/><stop offset=".069" stop-color="#62bd95"/><stop offset=".476" stop-color="#50db97"/><stop offset=".801" stop-color="#44ed98"/><stop offset="1" stop-color="#40f498"/></linearGradient></defs></symbol><symbol id="sprite-honey" viewBox="0 0 93 40"><title>honey</title><path fill-rule="evenodd" d="M81.507 37.288c-1.022 1.185-3.095 1.007-3.436-.725-.163-.859.074-1.895.444-2.62.83-1.584 2.326-2.886 4.029-3.316 0 .977 0 2.265-.03 3.257-.03 1.095-.266 2.53-1.007 3.404M65.023 13.887c.949.059 1.704 1.095 1.452 2.856-.311 2.087-2.044 4.322-4.013 4.826-.312-.74-.46-2.25-.282-3.73.326-2.71 1.718-4.012 2.843-3.952M28.103 23.98c-1.467-1.954-1.408-4.322-.949-6.572 1.437 3.227 5.273 3.79 7.642 3.316-.31 2.487-1.614 4.662-3.865 4.662-1.259.015-2.177-.532-2.829-1.406m5.183-9.118c.722.738 1.21 1.812 1.433 3.005l.003.015-.003-.015c-1.657.237-3.256-.074-4.425-.977-.844-.666-1.066-1.717-.71-2.353.517-.918 2.073-1.318 3.702.325M10.716 2.726c1.021-1.2 3.095-1.007 3.42.725.163.844-.059 1.88-.429 2.605-.83 1.584-2.325 2.886-4.029 3.33 0-.991-.015-2.264.03-3.256.03-1.095.267-2.546 1.007-3.404M86.32 28.392c.014-5.15 0-10.302 0-15.453 0-1.273-3.659-1.347-3.777-.06 0 .519 0 1.052-.015 1.57-.059 2.827-1.407 8.111-3.643 10.036-.607.518-1.155.547-1.54.266-.341-.252-.43-.888-.43-1.436v-.71c0-3.183.015-6.469 0-9.651 0-1.273-3.658-1.362-3.777-.074 0 2.96 0 5.832.015 8.763-2.414 3.848-7.997 5.654-10.307 1.095 1.436.548 2.961.281 3.998-.267 1.792-.947 3.155-2.516 3.421-5.003.252-7.282-9.374-8.274-11.522-.858-.355 1.229-.548 2.546-.503 3.834.044 1.228.296 2.368.725 3.375-.785.77-1.688 1.302-2.591 1.273-1.185-.045-1.067-1.51-1.067-2.354v-5.55c0-.667 0-1.333-.06-1.984-.191-1.94-1.673-3.479-3.746-3.612-2.947-.044-5.02 2.694-6.043 5.699-.014-1.673 0-2.665 0-4.352-.014-1.258-3.406-1.347-3.79-.015-.49 1.688-2.09 3.005-3.585 3.79-.459-1.11-1.036-2.132-1.836-3.005-3.288-3.568-8.042-2.916-10.827.03-2.206 2.338-2.872 6.557-1.688 9.517-.873 1.036-2.073 1.88-3.14 1.835-.533-.03-.829-.34-.962-.829-.134-.473-.104-1.035-.104-1.524 0-1.85-.015-3.7 0-5.55 0-.667 0-1.333-.059-1.984-.193-1.94-1.333-3.494-3.495-3.627-3.718-.163-5.213 3.434-6.31 6.395v-6.32c.785-.134 1.541-.326 2.296-.548C20.149 8.75 18.564.15 12.463.002c-4.117-.089-6.561 2.62-6.531 6.735V9.4C4.45 9.18 3.34 7.255 2.718 6.011q-.134-.288-.267-.577a.39.39 0 0 0-.474-.236c-.163.044-.326.103-.489.162-.592.267-1.08.726-1.317 1.333-.43 1.08 0 2.235.755 3.049 1.244 1.302 3.228 1.776 4.976 1.865-.015 5.136 0 10.258 0 15.394.059.725 1.051.918 1.629.932.607.015 1.925-.177 1.94-1.006l.045-.637c.251-2.279 2.443-11.397 5.213-11.412.681 0 1.022.444 1.022 1.11v8.127c0 2.516 1.421 4.203 3.998 4.203 2 .015 3.806-1.436 4.888-3.241.148.192.266.4.429.577a7.71 7.71 0 0 0 5.85 2.709c5.168-.074 7.82-4.515 7.627-8.881 1.2-.666 2.281-1.525 3.11-2.591v10.11c.06.725 1.096.918 1.674.932.607.015 1.925-.177 1.925-1.006l.06-.637.177-1.687c.267-2.354 2.03-9.71 5.036-9.725.666 0 1.007.444 1.007 1.11v8.127c0 2.516 1.422 4.203 4.013 4.203 1.792.015 3.421-1.154 4.517-2.694 1.452 1.791 3.673 2.842 6.339 2.842 3.125 0 5.39-1.376 6.901-3.597.341 1.91 1.363 3.42 3.866 3.45 2.591.014 4.561-3.597 5.376-5.774v5.818c-.77.133-1.525.325-2.28.547-8.19 2.34-6.621 10.954-.52 11.087 4.133.104 6.561-2.605 6.547-6.72 0-.696-.015-1.998 0-2.68 1.466.223 2.591 2.162 3.199 3.405q.154.289.267.578a.42.42 0 0 0 .488.236c.163-.044.326-.103.474-.177.607-.267 1.096-.71 1.333-1.332.43-1.08 0-2.22-.77-3.035-1.23-1.317-3.229-1.776-4.962-1.88" clip-rule="evenodd"/></symbol><symbol id="sprite-luxopicl" fill="none" viewBox="0 0 145 34"><title>luxopicl</title><path fill="#a7a7a7" fill-rule="evenodd" d="M61.78.772c-8.918 0-16.148 7.23-16.148 16.149 0 8.918 7.23 16.148 16.149 16.148 8.918 0 16.148-7.23 16.148-16.148C77.972 8.002 70.742.772 61.781.772m0 26.41c-5.671 0-10.26-4.59-10.26-10.261 0-5.672 4.589-10.26 10.26-10.26 5.672 0 10.261 4.588 10.261 10.26s-4.589 10.26-10.26 10.26M103.04 6.66h-5.455V30.04a2.92 2.92 0 0 1-2.944 2.944 2.92 2.92 0 0 1-2.944-2.944V6.66h-4.243V30.04a2.92 2.92 0 0 1-2.944 2.944 2.92 2.92 0 0 1-2.944-2.944V6.66h-4.892a2.92 2.92 0 0 1-2.944-2.944A2.92 2.92 0 0 1 76.674.772h26.322a2.92 2.92 0 0 1 2.944 2.944c.044 1.602-1.298 2.944-2.9 2.944m41.259-2.944V30.04a2.92 2.92 0 0 1-2.944 2.944 2.92 2.92 0 0 1-2.944-2.944V12.938v.216l-12.642 18.14c-.909 1.342-2.641 1.775-3.593 1.819-8.14 0-14.85-6.018-15.976-13.811v10.737a2.92 2.92 0 0 1-2.944 2.944 2.92 2.92 0 0 1-2.944-2.944V11.985a2.92 2.92 0 0 1 2.944-2.944 2.92 2.92 0 0 1 2.944 2.944v2.598A16.11 16.11 0 0 1 122.176.773c2.857 0 5.585.778 7.922 2.077.78.52 1.343 1.429 1.343 2.468a2.92 2.92 0 0 1-2.944 2.944c-.563 0-1.039-.13-1.472-.39q-2.144-1.169-4.806-1.169a10.255 10.255 0 0 0-10.261 10.261c0 5.369 4.156 9.785 9.438 10.217l17.275-24.59c.476-1.04 1.472-1.776 2.684-1.776 1.645-.043 2.944 1.256 2.944 2.901M48.662 28.177c1.04 1.256.823 3.117-.432 4.156-1.256 1.04-3.118.823-4.157-.432L35.588 21.38 27.102 31.9c-1.039 1.256-2.857 1.473-4.156.433-1.256-1.039-1.472-2.857-.433-4.156l9.308-11.473-3.767-4.632v2.684a10.07 10.07 0 0 1-10.087 10.088A10.07 10.07 0 0 1 7.88 14.756V3.716A2.92 2.92 0 0 1 10.823.772a2.92 2.92 0 0 1 2.944 2.944v11.04c0 2.338 1.862 4.2 4.2 4.2s4.2-1.905 4.2-4.2V3.716A2.92 2.92 0 0 1 25.11.772c1.04 0 1.949.563 2.468 1.386l8.01 9.87L43.77 1.941c1.04-1.255 2.858-1.472 4.156-.433 1.256 1.04 1.472 2.858.433 4.156l-8.961 11.084zm-27.751 1.775a2.92 2.92 0 0 1-2.944 2.944H3.593a3.3 3.3 0 0 1-.649.087A2.92 2.92 0 0 1 0 30.039V3.716A2.92 2.92 0 0 1 2.944.772a2.92 2.92 0 0 1 2.944 2.944v23.292h12.079a2.92 2.92 0 0 1 2.944 2.944" clip-rule="evenodd"/></symbol><symbol id="sprite-miu_miu" fill="none" viewBox="0 0 229 38"><title>miu_miu</title><path fill="#a7a7a7" d="M50.591 14.745v19.449c0 1.461-1.334 2.542-2.606 2.542h-6.737c-1.334 0-2.415-1.08-2.415-2.542V14.936c-.572-3.432-2.606-4.195-5.02-4.004-.764-2.161-1.526-4.004-2.797-5.784-2.606-2.542-2.225-1.652-2.987-2.542.19 0 1.525-1.08 3.368-1.653 1.462-.381 4.258-.572 6.165-.381 5.021.7 6.737 1.97 8.199 3.114l1.525 1.462c3.496 3.75 3.305 8.135 3.305 9.597M65.146 1.462h-6.547c-1.525 0-2.605 1.08-2.605 2.542V34.13c0 1.462 1.144 2.542 2.605 2.542h6.547c1.525 0 2.605-1.08 2.605-2.542V4.004c0-1.462-1.144-2.542-2.605-2.542m37.244 0h-6.737c-1.525 0-2.606 1.08-2.606 2.542v20.72c0 2.351-2.606 2.732-2.606 2.732v10.17h3.56c1.461-.191 3.75-.572 5.593-1.844 1.461-1.08 2.987-2.732 4.131-4.576.762-1.27.953-2.351 1.144-3.813V3.941c-.064-1.399-1.144-2.48-2.479-2.48M85.103 25.105V22.18l-.191-17.796c0-1.461-1.144-2.542-2.415-2.542H75.76c-1.462 0-2.606 1.08-2.606 2.542v23.453c.19 1.462.381 2.542 1.271 3.813 1.144 1.653 2.415 3.432 4.131 4.386 1.843 1.27 3.94 1.843 5.403 1.843h3.559V27.71c0-.063-2.415-.444-2.415-2.605M16.08.572h-.763C6.927.572.191 7.309.191 15.127L0 34.192c0 1.462 1.144 2.543 2.606 2.543H8.77c1.462 0 2.606-1.08 2.606-2.542V14.936c.381-1.462 2.605-3.305 4.449-3.305 1.652 0 3.75 1.843 4.322 3.305v19.067c0 1.462 1.143 2.542 2.415 2.542h6.355c1.335 0 2.416-1.08 2.416-2.542l.19-18.559C31.588 7.436 24.66.572 16.08.572m154.379 4.195-1.334-1.462c-1.462-1.08-3.178-2.352-8.39-3.241-1.652-.191-4.449.19-5.974.572-1.843.572-3.369 1.652-3.559 1.652.953.89.381 0 2.987 2.542 1.462 1.843 2.224 3.623 2.796 5.784 2.606-.19 4.449.572 5.021 4.004v19.258c0 1.462 1.271 2.542 2.606 2.542h6.737c1.335 0 2.415-1.08 2.415-2.542l.191-19.449c.063-1.525.191-5.847-3.496-9.66m18.05-3.623h-6.737c-1.334 0-2.415 1.08-2.415 2.542v30.126c0 1.462 1.144 2.543 2.415 2.543h6.737c1.335 0 2.415-1.081 2.415-2.543V3.686c0-1.462-1.08-2.542-2.415-2.542m37.117 0h-6.737c-1.271 0-2.415 1.08-2.415 2.542v17.987c0 .19 0 1.08-.19 2.733 0 2.351-2.416 2.733-2.416 2.733v10.169h3.56c1.461-.19 3.559-.7 5.402-1.843 1.652-1.08 3.178-2.733 4.258-4.513.763-1.271.954-2.352 1.144-3.813V3.686c0-1.462-1.144-2.542-2.606-2.542m-17.35 23.58V3.814c0-1.272-1.145-2.352-2.606-2.352h-6.547c-1.525 0-2.605 1.08-2.605 2.351v23.643c.19 1.462.381 2.543 1.144 3.623 1.144 1.843 2.605 3.623 4.258 4.513 1.843 1.27 3.94 1.843 5.402 1.843h3.559v-10.17s-2.415-.38-2.605-2.541M139.507 0l-.763.19c-8.58 0-15.253 6.738-15.253 14.555v19.067c0 1.462 1.144 2.543 2.606 2.543h6.165c1.461 0 2.605-1.081 2.605-2.543l-.19-18.876.19-.381c.382-1.462 2.606-3.242 4.259-3.242 1.652 0 3.94 1.653 4.258 3.242l.191.19-.191 18.877c0 1.461 1.144 2.542 2.606 2.542h6.165c1.525 0 2.606-1.08 2.606-2.543V14.936C154.761 7.118 148.087 0 139.507 0"/></symbol><symbol id="sprite-socials_fb" viewBox="0 0 10 20"><title>socials_fb</title><path d="M2.135 3.824v2.719H0v3.324h2.135v9.88h4.381v-9.88h2.942s.275-1.593.409-3.336H6.534V4.257c0-.339.477-.796.95-.796h2.389V0H6.625c-4.6 0-4.49 3.326-4.49 3.823"/></symbol><symbol id="sprite-socials_google_plus" viewBox="0 0 28 19"><title>socials_google_plus</title><path d="M24.49 8.063v-3.62h-1.697v3.62h-3.394v1.81h3.394v3.62h1.697v-3.62h3.394v-1.81zm-15.272 0v3.62h4.8a5.4 5.4 0 0 1-1.862 2.622 4.9 4.9 0 0 1-2.938.998c-1.35-.002-2.644-.574-3.598-1.592-.955-1.018-1.491-2.398-1.493-3.838.002-1.44.538-2.82 1.493-3.838.954-1.017 2.248-1.59 3.598-1.592 1.216 0 2.387.465 3.297 1.31l2.228-2.73C13.21 1.604 11.248.822 9.218.824 6.968.825 4.81 1.78 3.22 3.476S.735 7.474.733 9.873c.002 2.4.897 4.7 2.488 6.397 1.59 1.696 3.747 2.65 5.997 2.653 2.25-.002 4.406-.957 5.996-2.653s2.486-3.997 2.488-6.397v-1.81z"/></symbol><symbol id="sprite-socials_pi" viewBox="0 0 17 21"><title>socials_pi</title><path d="M7.31 13.604c-.529 2.832-1.172 5.547-3.082 6.965-.589-4.28.866-7.495 1.54-10.907-1.15-1.984.14-5.978 2.568-4.994 2.989 1.211-2.588 7.377 1.156 8.148 3.91.804 5.506-6.942 3.082-9.462C9.07-.283 2.378 3.272 3.2 8.479c.201 1.273 1.485 1.66.514 3.417-2.242-.51-2.91-2.32-2.824-4.732C1.03 3.217 4.357.452 7.695.069c4.221-.484 8.183 1.586 8.73 5.651.616 4.587-1.906 9.557-6.419 9.198-1.223-.096-1.738-.717-2.696-1.314"/></symbol><symbol id="sprite-socials_twitter" viewBox="0 0 25 21"><title>socials_twitter</title><path d="M24.733 3.158a9.6 9.6 0 0 1-2.81.786 5 5 0 0 0 2.151-2.757c-.964.58-2.015.99-3.11 1.21a4.9 4.9 0 0 0-1.63-1.168 4.8 4.8 0 0 0-1.943-.406c-2.703 0-4.895 2.234-4.895 4.986 0 .39.043.771.127 1.135A13.6 13.6 0 0 1 7.048 5.44a14.1 14.1 0 0 1-4.513-3.704 5 5 0 0 0-.661 2.505c0 .825.2 1.636.58 2.36.38.725.929 1.34 1.596 1.79a4.8 4.8 0 0 1-2.217-.625v.062c0 2.416 1.688 4.432 3.925 4.89-.42.116-.853.174-1.288.175q-.474 0-.922-.093c.32.997.932 1.866 1.75 2.487.82.621 1.806.963 2.821.977a9.7 9.7 0 0 1-6.078 2.132q-.594-.001-1.168-.07a13.65 13.65 0 0 0 7.503 2.244c9.003 0 13.926-7.598 13.926-14.187l-.017-.646a9.9 9.9 0 0 0 2.448-2.578"/></symbol></svg>